{
  "accessors": [
    {
      "bufferView": 2,
      "componentType": 5126,
      "count": 2019,
      "max": [
        1,
        1,
        1
      ],
      "min": [
        -1,
        -1,
        -1
      ],
      "type": "VEC3"
    },
    {
      "bufferView": 2,
      "byteOffset": 24228,
      "componentType": 5126,
      "count": 2019,
      "max": [
        1,
        1,
        1
      ],
      "min": [
        -1,
        -1,
        -1
      ],
      "type": "VEC3"
    },
    {
      "bufferView": 3,
      "componentType": 5126,
      "count": 2019,
      "max": [
        1,
        1,
        0.024566531181335449,
        1
      ],
      "min": [
        -1,
        -1,
        -0.024561673402786255,
        1
      ],
      "type": "VEC4"
    },
    {
      "bufferView": 1,
      "componentType": 5126,
      "count": 2019,
      "max": [
        1.2500200271606445,
        1
      ],
      "min": [
        -9.9999997473787516e-06,
        0
      ],
      "type": "VEC2"
    },
    {
      "bufferView": 0,
      "componentType": 5125,
      "count": 11904,
      "max": [
        2018
      ],
      "min": [
        0
      ],
      "type": "SCALAR"
    },
    {
      "bufferView": 2,
      "byteOffset": 48456,
      "componentType": 5126,
      "count": 2019,
      "max": [
        0.98298001289367676,
        0.98298001289367676,
        0.98298001289367676
      ],
      "min": [
        -0.98298001289367676,
        -0.98298001289367676,
        -0.98298001289367676
      ],
      "type": "VEC3"
    },
    {
      "bufferView": 2,
      "byteOffset": 72684,
      "componentType": 5126,
      "count": 2019,
      "max": [
        1,
        1,
        1
      ],
      "min": [
        -1,
        -1,
        -1
      ],
      "type": "VEC3"
    },
    {
      "bufferView": 3,
      "byteOffset": 32304,
      "componentType": 5126,
      "count": 2019,
      "max": [
        1,
        1,
        0.024565339088439941,
        1
      ],
      "min": [
        -1,
        -1,
        -0.024557195603847504,
        1
      ],
      "type": "VEC4"
    },
    {
      "bufferView": 1,
      "byteOffset": 16152,
      "componentType": 5126,
      "count": 2019,
      "max": [
        1.2500200271606445,
        1
      ],
      "min": [
        -9.9999997473787516e-06,
        0
      ],
      "type": "VEC2"
    },
    {
      "bufferView": 0,
      "byteOffset": 47616,
      "componentType": 5125,
      "count": 11904,
      "max": [
        2018
      ],
      "min": [
        0
      ],
      "type": "SCALAR"
    }
  ],
  "asset": {
    "extras": {
      "author": "Sketchfab (https://sketchfab.com/Sketchfab)",
      "license": "CC-BY-4.0 (http://creativecommons.org/licenses/by/4.0/)",
      "source": "https://sketchfab.com/models/0ff2bb7d8f0c4f04a8d09cfaf842fbf2",
      "title": "Where is the Sketchfab team?"
    },
    "generator": "Sketchfab-3.42.2",
    "version": "2.0"
  },
  "bufferViews": [
    {
      "buffer": 0,
      "byteLength": 95232,
      "byteOffset": 0,
      "name": "floatBufferViews",
      "target": 34963
    },
    {
      "buffer": 0,
      "byteLength": 32304,
      "byteOffset": 95232,
      "byteStride": 8,
      "name": "floatBufferViews",
      "target": 34962
    },
    {
      "buffer": 0,
      "byteLength": 96912,
      "byteOffset": 127536,
      "byteStride": 12,
      "name": "floatBufferViews",
      "target": 34962
    },
    {
      "buffer": 0,
      "byteLength": 64608,
      "byteOffset": 224448,
      "byteStride": 16,
      "name": "floatBufferViews",
      "target": 34962
    }
  ],
  "buffers": [
    {
      "byteLength": 289056,
      "uri": "scene.bin"
    }
  ],
  "images": [
    {
      "uri": "textures/water_baseColor.png"
    },
    {
      "uri": "textures/land_baseColor.png"
    }
  ],
  "materials": [
    {
      "doubleSided": true,
      "emissiveFactor": [
        0,
        0,
        0
      ],
      "name": "water",
      "pbrMetallicRoughness": {
        "baseColorFactor": [
          1,
          1,
          1,
          1
        ],
        "baseColorTexture": {
          "index": 0,
          "texCoord": 0
        },
        "metallicFactor": 0,
        "roughnessFactor": 0.59999999999999998
      }
    },
    {
      "alphaMode": "BLEND",
      "doubleSided": true,
      "emissiveFactor": [
        0,
        0,
        0
      ],
      "name": "land",
      "pbrMetallicRoughness": {
        "baseColorFactor": [
          1,
          1,
          1,
          1
        ],
        "baseColorTexture": {
          "index": 1,
          "texCoord": 0
        },
        "metallicFactor": 0,
        "roughnessFactor": 0.59999999999999998
      }
    }
  ],
  "meshes": [
    {
      "name": "Sphere.002_0",
      "primitives": [
        {
          "attributes": {
            "NORMAL": 1,
            "POSITION": 0,
            "TANGENT": 2,
            "TEXCOORD_0": 3
          },
          "indices": 4,
          "material": 1,
          "mode": 4
        }
      ]
    },
    {
      "name": "Sphere_0",
      "primitives": [
        {
          "attributes": {
            "NORMAL": 6,
            "POSITION": 5,
            "TANGENT": 7,
            "TEXCOORD_0": 8
          },
          "indices": 9,
          "material": 0,
          "mode": 4
        }
      ]
    }
  ],
  "nodes": [
    {
      "children": [
        1
      ],
      "name": "RootNode (gltf orientation matrix)",
      "rotation": [
        -0.70710678118654746,
        -0,
        -0,
        0.70710678118654757
      ]
    },
    {
      "children": [
        2
      ],
      "name": "RootNode (model correction matrix)"
    },
    {
      "children": [
        3,
        5
      ],
      "name": "Root"
    },
    {
      "children": [
        4
      ],
      "matrix": [
        0,
        -1.0031099999999999,
        -0,
        0,
        1.0031099999999999,
        0,
        -0,
        0,
        0,
        0,
        1.0031099999999999,
        0,
        0,
        0,
        0,
        1
      ],
      "name": "Sphere.002"
    },
    {
      "mesh": 0,
      "name": "Sphere.002_0"
    },
    {
      "children": [
        6
      ],
      "matrix": [
        0,
        -1,
        -0,
        0,
        1,
        0,
        -0,
        0,
        0,
        0,
        1,
        0,
        0,
        0,
        0,
        1
      ],
      "name": "Sphere"
    },
    {
      "mesh": 1,
      "name": "Sphere_0"
    }
  ],
  "samplers": [
    {
      "magFilter": 9729,
      "minFilter": 9987,
      "wrapS": 10497,
      "wrapT": 10497
    }
  ],
  "scene": 0,
  "scenes": [
    {
      "name": "OSG_Scene",
      "nodes": [
        0
      ]
    }
  ],
  "textures": [
    {
      "sampler": 0,
      "source": 0
    },
    {
      "sampler": 0,
      "source": 1
    }
  ]
}

